# 3ds Max Wavefront OBJ Exporter v0.99 - (c)2007 guruware
# File Created: 11.05.2020 18:22:19

mtllib 1_4Ramp.mtl

#
# object RampQuater
#

v  0.0000 0.5345 -0.0000
v  1.8254 0.5345 -0.0000
v  1.8254 0.6263 -1.0486
v  0.0000 0.6263 -1.0486
v  1.8254 0.8987 -2.0653
v  0.0000 0.8987 -2.0653
v  1.8254 1.3435 -3.0192
v  0.0000 1.3435 -3.0192
v  1.8254 1.9473 -3.8815
v  0.0000 1.9473 -3.8815
v  1.8254 2.6915 -4.6258
v  0.0000 2.6915 -4.6258
v  1.8254 3.5538 -5.2295
v  0.0000 3.5538 -5.2295
v  1.8254 4.5077 -5.6743
v  0.0000 4.5077 -5.6743
v  1.8254 5.5244 -5.9468
v  0.0000 5.5244 -5.9468
v  1.8254 6.5730 -6.0385
v  0.0000 6.5730 -6.0385
v  0.0000 1.3799 -0.9157
v  0.0000 1.2998 -0.0000
v  0.0000 1.6178 -1.8035
v  0.0000 2.0063 -2.6366
v  0.0000 2.5335 -3.3896
v  0.0000 3.1835 -4.0395
v  0.0000 3.9364 -4.5667
v  0.0000 4.7695 -4.9552
v  0.0000 5.6573 -5.1931
v  0.0000 6.5730 -5.2732
v  -0.7769 1.3799 -0.9157
v  -0.7769 1.2998 -0.0000
v  -0.7769 1.6178 -1.8035
v  -0.7769 2.0063 -2.6366
v  -0.7769 2.5335 -3.3896
v  -0.7769 3.1835 -4.0395
v  -0.7769 3.9364 -4.5667
v  -0.7769 4.7695 -4.9552
v  -0.7769 5.6573 -5.1931
v  -0.7769 6.5730 -5.2732
v  -0.7769 0.2243 -1.1194
v  -0.7769 0.1264 0.0000
v  -0.7769 0.5152 -2.2049
v  -0.7769 0.9901 -3.2233
v  -0.7769 1.6346 -4.1438
v  -0.7769 2.4292 -4.9384
v  -0.7769 3.3497 -5.5830
v  -0.7769 4.3681 -6.0579
v  -0.7769 5.4536 -6.3487
v  -0.7769 6.5730 -6.4466
v  3.6509 0.5345 -0.0000
v  3.6509 0.6263 -1.0486
v  3.6509 0.8987 -2.0653
v  3.6509 1.3435 -3.0192
v  3.6509 1.9473 -3.8815
v  3.6509 2.6915 -4.6258
v  3.6509 3.5538 -5.2295
v  3.6509 4.5077 -5.6743
v  3.6509 5.5244 -5.9468
v  3.6509 6.5730 -6.0385
v  3.6509 1.2998 -0.0000
v  3.6509 1.3799 -0.9157
v  3.6509 1.6178 -1.8035
v  3.6509 2.0063 -2.6366
v  3.6509 2.5335 -3.3896
v  3.6509 3.1835 -4.0395
v  3.6509 3.9364 -4.5667
v  3.6509 4.7695 -4.9552
v  3.6509 5.6573 -5.1931
v  3.6509 6.5730 -5.2732
v  4.4277 1.2998 -0.0000
v  4.4277 1.3799 -0.9157
v  4.4277 1.6178 -1.8035
v  4.4277 2.0063 -2.6366
v  4.4277 2.5335 -3.3896
v  4.4277 3.1835 -4.0395
v  4.4277 3.9364 -4.5667
v  4.4277 4.7695 -4.9552
v  4.4277 5.6573 -5.1931
v  4.4277 6.5730 -5.2732
v  4.4277 0.1264 0.0000
v  4.4277 0.2243 -1.1194
v  4.4277 0.5152 -2.2049
v  4.4277 0.9901 -3.2233
v  4.4277 1.6346 -4.1438
v  4.4277 2.4292 -4.9384
v  4.4277 3.3497 -5.5830
v  4.4277 4.3681 -6.0579
v  4.4277 5.4536 -6.3487
v  4.4277 6.5730 -6.4466
# 90 vertices

vn 0.6866 0.7242 0.0634
vn -0.0000 0.9962 0.0872
vn -0.0000 0.9848 0.1736
vn 0.6880 0.7147 0.1260
vn -0.0000 0.9397 0.3420
vn 0.6880 0.6819 0.2482
vn -0.0000 0.8660 0.5000
vn 0.6880 0.6285 0.3629
vn -0.0000 0.7661 0.6428
vn 0.6880 0.5559 0.4664
vn -0.0000 0.6428 0.7661
vn 0.6880 0.4664 0.5559
vn -0.0000 0.5000 0.8660
vn 0.6880 0.3629 0.6285
vn -0.0000 0.3420 0.9397
vn 0.6880 0.2482 0.6819
vn -0.0000 0.1736 0.9848
vn 0.6880 0.1260 0.7147
vn -0.0000 0.0872 0.9962
vn 0.6866 0.0634 0.7242
vn 0.7273 0.6759 0.1192
vn 0.7260 0.6851 0.0599
vn 0.7273 0.6450 0.2347
vn 0.7273 0.5944 0.3432
vn 0.7273 0.5258 0.4412
vn 0.7273 0.4412 0.5258
vn 0.7272 0.3432 0.5944
vn 0.7273 0.2347 0.6449
vn 0.7272 0.1192 0.6760
vn 0.7260 0.0599 0.6851
vn -0.7273 0.6759 0.1192
vn -0.7260 0.6851 0.0599
vn -0.7273 0.6450 0.2347
vn -0.7273 0.5944 0.3432
vn -0.7273 0.5258 0.4412
vn -0.7273 0.4412 0.5258
vn -0.7273 0.3432 0.5944
vn -0.7273 0.2347 0.6449
vn -0.7273 0.1192 0.6759
vn -0.7260 0.0599 0.6851
vn -1.0000 -0.0000 -0.0000
vn -0.6866 0.7242 0.0634
vn -0.6880 0.7147 0.1260
vn -0.6880 0.6819 0.2482
vn -0.6880 0.6285 0.3629
vn -0.6880 0.5559 0.4664
vn -0.6880 0.4664 0.5559
vn -0.6880 0.3629 0.6285
vn -0.6880 0.2482 0.6819
vn -0.6880 0.1260 0.7147
vn -0.6866 0.0634 0.7242
vn -0.7272 0.1192 0.6760
vn 0.7273 0.3432 0.5944
vn 0.7273 0.1192 0.6759
vn 1.0000 0.0000 -0.0000
# 55 vertex normals

vt 0.7500 0.0000 1.0000
vt 0.7500 0.5033 1.0000
vt 0.7778 0.5033 1.0000
vt 0.7778 0.0000 1.0000
vt 0.8056 0.5033 1.0000
vt 0.8056 0.0000 1.0000
vt 0.8333 0.5033 1.0000
vt 0.8333 0.0000 1.0000
vt 0.8611 0.5033 1.0000
vt 0.8611 0.0000 1.0000
vt 0.8889 0.5033 1.0000
vt 0.8889 0.0000 1.0000
vt 0.9167 0.5033 1.0000
vt 0.9167 0.0000 1.0000
vt 0.9444 0.5033 1.0000
vt 0.9444 0.0000 1.0000
vt 0.9722 0.5033 1.0000
vt 0.9722 0.0000 1.0000
vt 1.0000 0.5033 1.0000
vt 1.0000 0.0000 1.0000
# 20 texture coords

o RampQuater
g RampQuater
usemtl wire_225087143
s 8
f 1/1/1 2/2/2 3/3/3 4/4/4 
f 4/4/4 3/3/3 5/5/5 6/6/6 
f 6/6/6 5/5/5 7/7/7 8/8/8 
f 8/8/8 7/7/7 9/9/9 10/10/10 
f 10/10/10 9/9/9 11/11/11 12/12/12 
f 12/12/12 11/11/11 13/13/13 14/14/14 
f 14/14/14 13/13/13 15/15/15 16/16/16 
f 16/16/16 15/15/15 17/17/17 18/18/18 
f 18/18/18 17/17/17 19/19/19 20/20/20 
s off
f 4/4/4 21/4/21 22/1/22 1/1/1 
f 6/6/6 23/6/23 21/4/21 4/4/4 
f 8/8/8 24/8/24 23/6/23 6/6/6 
f 10/10/10 25/10/25 24/8/24 8/8/8 
f 12/12/12 26/12/26 25/10/25 10/10/10 
f 14/14/14 27/14/27 26/12/26 12/12/12 
f 16/16/16 28/16/28 27/14/27 14/14/14 
f 18/18/18 29/18/29 28/16/28 16/16/16 
f 20/20/20 30/20/30 29/18/29 18/18/18 
f 21/4/21 31/4/31 32/1/32 22/1/22 
f 23/6/23 33/6/33 31/4/31 21/4/21 
f 24/8/24 34/8/34 33/6/33 23/6/23 
f 25/10/25 35/10/35 34/8/34 24/8/24 
f 26/12/26 36/12/36 35/10/35 25/10/25 
f 27/14/27 37/14/37 36/12/36 26/12/26 
f 28/16/28 38/16/38 37/14/37 27/14/27 
f 29/18/29 39/18/39 38/16/38 28/16/28 
f 30/20/30 40/20/40 39/18/39 29/18/29 
f 31/4/31 41/4/41 42/1/41 32/1/32 
f 33/6/33 43/6/41 41/4/41 31/4/31 
f 34/8/34 44/8/41 43/6/41 33/6/33 
f 35/10/35 45/10/41 44/8/41 34/8/34 
f 36/12/36 46/12/41 45/10/41 35/10/35 
f 37/14/37 47/14/41 46/12/41 36/12/36 
f 38/16/38 48/16/41 47/14/41 37/14/37 
f 39/18/39 49/18/41 48/16/41 38/16/38 
f 40/20/40 50/20/41 49/18/41 39/18/39 
s 8
f 51/1/42 52/4/43 3/3/3 2/2/2 
f 52/4/43 53/6/44 5/5/5 3/3/3 
f 53/6/44 54/8/45 7/7/7 5/5/5 
f 54/8/45 55/10/46 9/9/9 7/7/7 
f 55/10/46 56/12/47 11/11/11 9/9/9 
f 56/12/47 57/14/48 13/13/13 11/11/11 
f 57/14/48 58/16/49 15/15/15 13/13/13 
f 58/16/49 59/18/50 17/17/17 15/15/15 
f 59/18/50 60/20/51 19/19/19 17/17/17 
s off
f 52/4/43 51/1/42 61/1/32 62/4/31 
f 53/6/44 52/4/43 62/4/31 63/6/33 
f 54/8/45 53/6/44 63/6/33 64/8/34 
f 55/10/46 54/8/45 64/8/34 65/10/35 
f 56/12/47 55/10/46 65/10/35 66/12/36 
f 57/14/48 56/12/47 66/12/36 67/14/37 
f 58/16/49 57/14/48 67/14/37 68/16/38 
f 59/18/50 58/16/49 68/16/38 69/18/52 
f 60/20/51 59/18/50 69/18/52 70/20/40 
f 62/4/31 61/1/32 71/1/22 72/4/21 
f 63/6/33 62/4/31 72/4/21 73/6/23 
f 64/8/34 63/6/33 73/6/23 74/8/24 
f 65/10/35 64/8/34 74/8/24 75/10/25 
f 66/12/36 65/10/35 75/10/25 76/12/26 
f 67/14/37 66/12/36 76/12/26 77/14/53 
f 68/16/38 67/14/37 77/14/53 78/16/28 
f 69/18/52 68/16/38 78/16/28 79/18/54 
f 70/20/40 69/18/52 79/18/54 80/20/30 
f 72/4/21 71/1/22 81/1/55 82/4/55 
f 73/6/23 72/4/21 82/4/55 83/6/55 
f 74/8/24 73/6/23 83/6/55 84/8/55 
f 75/10/25 74/8/24 84/8/55 85/10/55 
f 76/12/26 75/10/25 85/10/55 86/12/55 
f 77/14/53 76/12/26 86/12/55 87/14/55 
f 78/16/28 77/14/53 87/14/55 88/16/55 
f 79/18/54 78/16/28 88/16/55 89/18/55 
f 80/20/30 79/18/54 89/18/55 90/20/55 
# 72 polygons

